# xmcd
#
# Track frame offsets: 
#        150
#        22307
#        47750
#        67480
#        87662
#        104687
#        125572
#        146765
#        168158
#        189106
#        205700
#        233096
#        249924
#        272990
#        295460
#        316872
#        342954
#
# Disc length: 4773 seconds
#
# Revision: 0
# Processed by: cddbd v1.5.2PL0 Copyright (c) Steve Scherf et al.
# Submitted via: ExactAudioCopyFreeDBPlugin 1.0
#
DISCID=0b12a311
DTITLE=Various Artist - Blues Paradise Best vol.2
DYEAR=2012
DGENRE=Blues
TTITLE0=Lazy Poker Blues Band and Jon McDonald - All Your Love
TTITLE1=Scott Hold Band - Let's Straighten It Out
TTITLE2=The Mick Clarke Band - Cheap
TTITLE3=Rick Derringer - Tough On Me Tough On You
TTITLE4=Muskee - Tonight On Me
TTITLE5=The Boneshakers - Let's Straighten It Out
TTITLE6=The Beat Daddys - Woman's Got The Power
TTITLE7=Pat Boyack and The Prowlers - I Know It's Over
TTITLE8=T.Benoit, D.Davies, K.Neal - Deal With It
TTITLE9=The John Slaughter Band - Don't Fool Yourself
TTITLE10=Red Beans and Rise - The Dark Side
TTITLE11=Tab Benoit - Cross The Line
TTITLE12=Tommy Shrieve Band - You Got A Love
TTITLE13=Sherman Robertson - In the here and now
TTITLE14=Merk Selby - You're Gonna Miss My Love
TTITLE15=Warren Haynes - Power And The Gliry
TTITLE16=The Mick Pini Band - Looking For Somebody
EXTD=
EXTT0=
EXTT1=
EXTT2=
EXTT3=
EXTT4=
EXTT5=
EXTT6=
EXTT7=
EXTT8=
EXTT9=
EXTT10=
EXTT11=
EXTT12=
EXTT13=
EXTT14=
EXTT15=
EXTT16=
PLAYORDER=
